<?xml version="1.0" encoding="utf-8"?>
<svg version="1.1" id="Calque_1" xmlns="http://www.w3.org/2000/svg" xmlns:xlink="http://www.w3.org/1999/xlink" x="0px"
     y="0px"
     viewBox="0 0 500 200" style="enable-background:new 0 0 500 200;" xml:space="preserve">
<style type="text/css">
	.st0{fill:#FFFFFF;}
</style>
    <path class="st0" d="M143.2,132.7c-0.2-0.2-0.5-0.3-0.7-0.3h-34.9c-6.1,0-11-4.9-11-11V94.7c0-4.4,2.1-8.5,5.6-11.1l17.2-12.7
	c4.9-3.6,11.5-3.6,16.4,0l17.2,12.7c3.5,2.6,5.6,6.7,5.6,11.1V118c0,0.4-0.3,0.7-0.7,0.7c-0.2,0-0.3-0.1-0.4-0.2l-9.4-8
	c-0.5-0.4-0.7-1-0.7-1.6V95c0-1-0.4-1.9-1.2-2.5L129,80c-0.9-0.7-2.1-0.7-3,0l-16.9,12.5c-0.8,0.6-1.3,1.5-1.2,2.5v23.7
	c0,1.4,1.1,2.5,2.5,2.5H144c0.6,0,1.1,0.2,1.6,0.6l8.5,7c0,0,4.1,3.5,8.3,7c0.1,0.1,0.3,0.1,0.4,0c3.3-3.5,5.1-8.2,5.1-13V93.1
	c0-7.2-3.5-13.9-9.4-18l-19.2-13.3c-7.1-4.9-16.5-4.9-23.5,0L96.6,75.2c-5.9,4.1-9.4,10.8-9.4,18v29.5c0,10.6,8.6,19.2,19.2,19.2
	l0,0h42.2c1.5,0,2.9-0.2,4.4-0.5c0.1,0,0.2-0.2,0.2-0.3c0-0.1,0-0.1-0.1-0.1L143.2,132.7z"/>
    <path class="st0" d="M381.5,79.4c-2.1,0-3.8,1.7-3.8,3.7s1.7,3.8,3.7,3.8c2.1,0,3.8-1.7,3.8-3.7c0-1-0.4-2-1.1-2.7
	C383.4,79.8,382.4,79.4,381.5,79.4z"/>
    <path class="st0" d="M254.2,105.3c0.1,2-0.6,4-2.1,5.5c-1.3,1.2-3.1,1.9-4.9,1.9c-4,0-5.9-2.3-5.9-7.1V90.7h-6v16.5
	c0,3.5,1,6.2,2.8,8.1c4.2,4,10.9,3.8,14.9-0.5c0.4-0.4,0.8-0.9,1.1-1.4v4.3h6V90.7h-6L254.2,105.3z"/>
    <path class="st0" d="M281.4,90.3c-3.8-0.1-7.4,1.3-10.1,4c-5.4,5.5-5.4,14.2,0,19.7c5.7,5.4,14.6,5.4,20.2,0
	c5.4-5.5,5.4-14.2,0-19.7C288.8,91.7,285.2,90.2,281.4,90.3z M289.6,104.2c0.1,2.3-0.7,4.5-2.3,6.1c-3.3,3.2-8.5,3.2-11.7,0
	c-3.1-3.5-3.1-8.7,0-12.2c3.3-3.1,8.5-3.1,11.7,0C288.8,99.7,289.6,101.9,289.6,104.2z"/>
    <path class="st0" d="M225.9,99.9c0.1-4.9-1.8-9.6-5.3-12.9c-7.4-6.9-18.8-6.9-26.1,0c-7,7.1-7,18.6,0,25.7c3.5,3.5,8.2,5.4,13.1,5.3
	c3.6,0.1,7.1-0.9,10.2-2.8l6.6,5.5l3.8-4.6l-6-5C224.6,107.9,226,104,225.9,99.9z M216.3,108.9c-4.7,4.8-12.5,4.9-17.3,0.2
	c-0.1-0.1-0.1-0.1-0.2-0.2c-4.8-5-4.8-12.9,0-17.9c4.7-4.8,12.5-4.9,17.3-0.2c0.1,0.1,0.1,0.1,0.2,0.2C221,96,221,103.9,216.3,108.9
	z"/>
    <path class="st0" d="M314.8,112l-0.1-0.1l-0.1,0.1c-0.7,0.5-1.5,0.8-2.4,0.8c-1,0.1-2-0.3-2.6-1.1c-0.7-0.8-1-1.8-1-2.9V95.6h7v-4.9
	h-7v-8.3h-6v26.3c-0.1,2.5,0.8,5,2.6,6.8c1.6,1.6,3.9,2.6,6.2,2.5c2.5,0,4.9-1,6.6-2.7l0.1-0.1l-0.5-0.8L314.8,112z"/>
    <path class="st0" d="M367.8,112.2c-0.6,0.4-1.3,0.6-2,0.6c-1,0.1-2-0.3-2.6-1.1c-0.7-0.8-1-1.8-1-2.9V95.6h7v-4.9h-7v-8.3h-6v26.3
	c-0.1,2.5,0.8,5,2.6,6.8c1.6,1.6,3.9,2.6,6.2,2.5c2.4,0,4.8-0.9,6.5-2.6l0.2-0.2l-3.7-3.2L367.8,112.2z"/>
    <path class="st0" d="M336.6,90.3c-4,0-8,1.3-11.1,3.9l-0.1,0.1l0.5,0.6l3.1,2.6l0.1-0.1c2-1.3,4.3-2.1,6.8-2.1
	c3.8,0,5.7,1.7,5.7,5.1v0.8h-7c-2.8-0.1-5.5,0.6-7.9,2c-2,1.3-3.1,3.6-3,6c-0.1,2.4,0.9,4.8,2.8,6.4c2,1.6,4.5,2.5,7,2.4
	c3.3,0.1,6.4-1.2,8.6-3.6v3.2h5.5v-17.3c0-3.4-1-6-3-7.6C342.3,91.1,339.5,90.2,336.6,90.3z M341.5,105.5v2c0,1.5-0.7,3-1.9,3.9
	c-1.3,1-2.9,1.5-4.5,1.5c-1.4,0.1-2.8-0.3-4-1c-0.9-0.6-1.5-1.7-1.4-2.8c0-2.4,1.9-3.6,5.8-3.6L341.5,105.5z"/>
    <rect x="378.4" y="90.7" class="st0" width="6" height="26.9"/>
    <path class="st0" d="M410,103.8c-0.8-0.5-1.7-1-2.6-1.4c-0.8-0.3-1.6-0.6-2.4-0.9s-1.8-0.5-2.9-0.8c-0.9-0.2-1.7-0.5-2.5-0.8
	c-0.7-0.3-1.2-0.9-1.2-1.7c0-0.8,0.4-1.6,1.1-2c1-0.5,2.1-0.7,3.1-0.7c2.2,0,4.3,0.6,6.2,1.7l0.1,0.1l3-3.8l0.1-0.2l-0.2-0.1
	c-2.6-1.8-5.7-2.7-8.8-2.7c-2.7-0.1-5.4,0.7-7.6,2.3c-1.9,1.4-3,3.7-2.9,6.1c0,3.6,2.8,6.2,8.4,7.7l0.6,0.2c3.4,1,5.1,2.2,5.1,3.4
	c0,0.8-0.4,1.6-1,2.1c-0.8,0.6-1.8,0.9-2.9,0.8c-2.5-0.1-4.9-0.8-7-2.2l-0.1-0.1l-4.2,3.5l-0.2,0.2l0.2,0.2c1.6,1.1,3.3,2,5.1,2.6
	c2,0.7,4,1,6.1,1.1c2.6,0.1,5.1-0.7,7.2-2.3c1.9-1.5,2.9-3.8,2.8-6.2C413,107.3,411.9,105.1,410,103.8z"/>
</svg>
